<svg xmlns="http://www.w3.org/2000/svg" width="209" height="51" fill="none" viewBox="0 0 209 51"><path fill="#0a0a0a" d="M11.37 28.87v-8.02h6.949c2.84 0 3.859 1.063 3.859 4.01 0 2.945-1.876 4.01-4.06 4.01zm0 14.61v-8.02h7.66c2.235 0 3.55 1.064 3.55 4.01 0 2.947-1.013 4.01-3.858 4.01h-7.36zM0 49.927h19.893c6.547 0 10.607-3.148 10.607-9.538 0-4.413-1.775-7.1-5.483-8.221v-.963c3.198-1.272 5.024-3.809 5.024-7.611 0-6.188-3.91-9.185-11.061-9.185H0v6.799h4.06v21.92H0zM45.97 30.393v-9.538h8.02c3.097 0 4.212 1.322 4.212 4.772S57.087 30.4 53.99 30.4h-8.02zm-7.46 19.534h7.46V36.732h5.886l7.762 13.195h8.473l-8.07-13.749v-1.775c3.55-1.272 5.936-4.363 5.936-9.286 0-7.208-3.701-10.708-11.42-10.708H38.505v35.518zM82.038 34.252V29.23l6.037-7.41h1.165l6.288 7.712v4.721H82.033zm20.957 15.682V26.49L92.337 13.906h-7.101L74.578 26.49v23.444h7.46V41.05h13.497v8.883zM111.09 14.41v22.933l10.909 12.835h7.561l10.96-12.936V14.409h-7.611v20.296l-6.39 7.863h-1.171l-6.647-8.165V14.409zM149.535 14.41v35.517h24.608v-6.8h-17.305v-7.56h13.245v-6.799h-13.245v-7.56h16.795v-6.799zM193.985 0l-9.896 5.836v8.17l7.511-4.418h.963v19.13h-10.047v6.8h26.483v-6.8h-9.128V0z"/></svg>