<svg xmlns="http://www.w3.org/2000/svg" width="606" height="708" fill="none" viewBox="0 0 606 708"><path fill="#fb5c00" d="M277.267 1.067c-1.2.266-6.534 2.533-11.734 5.066-22.533 10.934-37.466 36-35.066 58.534 2.666 23.2 14.533 39.866 35.866 49.866l8.4 4 .8 103.734c.4 57.066 1.2 118 1.6 135.333.4 18.533.267 31.733-.4 31.733-1.466 0-12.133-11.066-34.933-36-9.067-9.866-20.533-22.266-25.333-27.333-7.6-8-76.667-82.667-95.067-102.667l-6.133-6.8 1.866-7.2c2.4-9.2 2.4-15.866-.133-26.4-2.667-11.333-6-17.333-14.533-26.533-22-23.733-58.267-25.733-82.4-4.533-30.934 27.333-24.267 79.6 12.4 97.466 3.2 1.6 6.8 3.334 7.866 3.867 1.733.933 1.867 22.267 1.733 169.467L41.933 591.2l-7.867 3.733C7.133 607.6-5.934 638 3 667.067c2.933 9.6 11.867 22.666 18.933 28 19.734 14.8 45.467 16.8 66.8 5.333 8.267-4.533 20.4-17.733 24.4-26.4 13.467-29.333 1.734-63.2-27.333-78.533l-9.467-4.934V254l9.334-4.4c5.066-2.533 9.733-4.267 10.4-4 1.066.4 12.133 12.133 30.133 31.733 3.6 4 10.533 11.6 15.333 16.667 17.734 19.067 24.267 26 50.8 54.667 14.8 16.133 30.134 32.666 33.867 36.666S240.2 400.4 249 410c8.8 9.467 18.8 20.267 22.133 23.867l6.267 6.533.133 69.467c.134 38.266.534 71.333.934 73.733.8 4.133.533 4.4-7.734 8.133-11.066 5.067-22.133 16-28 28-4.266 8.667-4.4 9.467-4.4 25.6V662l5.2 9.733c6.267 11.734 16.8 21.734 28.534 27.334 4.533 2.133 8.266 4.533 8.266 5.2 0 1.866 32 .666 33.2-1.2.4-.8 2.267-1.867 4.134-2.4 11.733-3.6 27.6-18.4 32.666-30.267 1.734-4.533 2.267-4.667 10.267-5.467 4.667-.533 35.333-.933 68.267-1.066l59.866-.134 1.6 4.667C493 676 498.467 684.533 505 690.933c37.067 36.534 100.133 10.4 100.533-41.866.267-23.867-12-43.334-34.533-54.534l-8-4 .267-159.466.4-159.467 9.066-4.8c12-6.4 16.934-10.533 22.667-19.067 11.333-17.2 13.467-40 5.2-57.733-5.6-11.867-11.6-19.067-21.067-25.333-11.466-7.6-21.466-10.267-36-9.734-10.8.4-13.333 1.067-22.133 5.467-18.4 9.067-30 24.4-33.2 44-1.6 9.2-1.467 11.867.667 21.867l2.266 11.466-3.066 2.934c-1.734 1.6-22.534 20-46.4 40.8-23.867 20.666-43.6 38.133-44 38.533s-17.467 15.467-38 33.333c-20.534 18-39.467 34.534-42 36.934s-5.334 4.4-6.134 4.4c-1.466 0-3.2-121.467-3.2-226.8v-50.4l9.334-4.8c31.2-16.534 41.066-56.134 21.333-85.734-5.333-7.866-15.6-16.666-23.333-20-2.134-1.066-5.467-2.8-7.334-4C305.8 1.2 301.933.667 292.2.667c-6.933 0-13.733.133-14.933.4M521.4 267.6l8.267 3.6v319.467l-6.667 3.2c-14.4 6.933-23.067 15.6-32.133 32.4l-2.134 4-65.733.8c-36.133.4-66.4.4-67.333.133-.934-.4-2.4-3.2-3.334-6.267C348.6 612.4 335.8 598 323.133 592c-3.333-1.6-7.066-3.333-8.133-3.867-2.267-1.2-3.467-34.133-3.867-105.733L311 440.133l20.267-17.733c11.066-9.733 28.133-24.667 37.733-33.067 64.8-56.8 92.667-81.333 97.333-85.466 11.867-10.8 45.334-39.867 46-39.867.4 0 4.4 1.6 9.067 3.6"/></svg>